<svg id="Layer_1" data-name="Layer 1" xmlns="http://www.w3.org/2000/svg" viewBox="0 0 316.81 87"><defs><style>.cls-1{fill:#231f20;}.cls-2{fill:#fff;}.cls-3{fill:#ee3124;}</style></defs><title>adobe_logo</title><rect class="cls-1" width="316.81" height="87"/><path class="cls-2" d="M191.79,123.42l-2.94,14.79H178l13.53-61.54h13.28l12.29,61.54H206.2l-2.88-14.79Zm10.5-8.67L200,101.41c-.64-3.84-1.47-9.84-2.1-14h-.24c-.67,4.19-1.59,10.36-2.27,14L193,114.75Z" transform="translate(-67.5 -63.75)"/><path class="cls-2" d="M252.92,75v50.42c0,4,.21,8.92.37,12.76h-9.61l-.63-5.13h-.23a10.71,10.71,0,0,1-9.32,5.86c-9.21,0-13.77-10.13-13.77-22.91,0-15.57,6.8-23.15,14.23-23.15a7.89,7.89,0,0,1,7.65,4.63h.18V75Zm-11.13,35.69a15,15,0,0,0-.16-2.65c-.43-3-2.06-5.78-4.66-5.78-4.47,0-6.12,6.44-6.12,13.94,0,8.64,2.35,13.56,6,13.56,1.66,0,3.56-.86,4.61-4.48a9.09,9.09,0,0,0,.38-2.82Z" transform="translate(-67.5 -63.75)"/><path class="cls-2" d="M275.88,138.95c-10.25,0-16.69-8.23-16.69-22.91,0-16,8.26-23.15,16.95-23.15,10.12,0,16.47,8.61,16.47,22.9,0,18.36-9.94,23.16-16.63,23.16Zm.21-8.51c4.25,0,5.3-8,5.3-14.58,0-6.28-1.05-14.46-5.48-14.46-4.7,0-5.69,8.18-5.69,14.46,0,7.57,1.25,14.58,5.78,14.58Z" transform="translate(-67.5 -63.75)"/><path class="cls-2" d="M298.82,75H310V98.29h.18c2.19-3.44,5.11-5.4,9.35-5.4,8.39,0,12.6,9.51,12.6,21.93,0,15.71-6.29,24.13-14.42,24.13-3.89,0-6.48-1.72-8.8-6.07h-.23l-.63,5.34h-9.55c.16-3.71.37-8.76.37-12.76ZM310,122.29a9.08,9.08,0,0,0,.44,2.85c1.11,3.74,3,4.66,4.53,4.66,4.29,0,6-5.44,6-14.14,0-7.9-1.83-13.36-6.09-13.36-2.11,0-3.88,2.29-4.49,4.74a11.71,11.71,0,0,0-.42,2.81Z" transform="translate(-67.5 -63.75)"/><path class="cls-2" d="M347.54,119.51c.13,8.06,4.39,10.68,9.66,10.68a23.44,23.44,0,0,0,8.35-1.54l1.5,8a32.6,32.6,0,0,1-11.87,2.07c-12,0-18.47-8.14-18.47-22,0-14.91,7.57-23.86,17.45-23.86,9.54,0,14.84,7.9,14.84,20.84a40.33,40.33,0,0,1-.32,5.91Zm11.21-7.85c.06-6.25-1.78-10.66-5.31-10.66-4,0-5.74,5.89-5.88,10.66Z" transform="translate(-67.5 -63.75)"/><polygon class="cls-3" points="56.96 10.62 84.03 10.62 84.03 75.2 56.96 10.62"/><polygon class="cls-3" points="37.89 10.62 10.8 10.62 10.8 75.2 37.89 10.62"/><polygon class="cls-3" points="47.43 34.42 64.67 75.2 53.37 75.2 48.21 62.21 35.59 62.21 47.43 34.42"/><path class="cls-2" d="M372.47,91.31a3.43,3.43,0,0,1,0,6.86,3.43,3.43,0,1,1,0-6.86Zm0,.58a2.85,2.85,0,1,0,2.74,2.85,2.79,2.79,0,0,0-2.74-2.85Zm-.63,4.84h-.69V92.91a7,7,0,0,1,1.15-.11,2,2,0,0,1,1.24.31,1,1,0,0,1,.34.79.92.92,0,0,1-.73.91v0c.34.06.55.37.63.93a3.49,3.49,0,0,0,.23.95h-.7a3,3,0,0,1-.24-1,.7.7,0,0,0-.81-.64h-.4Zm0-2.15h.41c.51,0,.92-.17.92-.61s-.24-.64-.89-.64a3.47,3.47,0,0,0-.44,0Z" transform="translate(-67.5 -63.75)"/></svg>