<svg id="Layer_1" data-name="Layer 1" xmlns="http://www.w3.org/2000/svg" viewBox="0 0 343.41 438.47"><defs><style>.cls-1{fill:#fff;}</style></defs><title>if</title><path class="cls-1" d="M452.69,375.83c0-23.82,0-26.87-16.49-37.86l-5.5-3.66c-2.44-2.44-2.44-9.16.61-11,14-4.89,48.85-20.76,62.9-29.92,3.05,0,5.5,1.22,6.11,3.66-1.22,21.37-2.44,50.69-2.44,75.72V482.7c0,44,1.22,50.08,23.21,53.13l12.82,1.83c4.27,3.05,3.05,13.44-1.22,15.27-18.32-1.22-36-1.83-57.4-1.83-22,0-40.3.61-57.4,1.83-4.27-1.83-5.5-12.21-1.22-15.27l12.82-1.83c22.6-3.05,23.21-9.16,23.21-53.13Zm50.69-174c0,22-15.27,31.76-32.37,31.76-18.93,0-31.14-14-31.14-30.53,0-20.15,14.66-33,33-33S503.38,184.69,503.38,201.79Z" transform="translate(-414 -114.46)"/><path class="cls-1" d="M624.28,336.14c-10.38,0-10.38,1.22-10.38,17.71V482.7c0,44,1.22,51.3,23.21,53.13l22,1.83c4.27,3.05,3.05,13.44-1.22,15.27-27.48-1.22-45.19-1.83-66.56-1.83-22,0-40.3.61-58.63,1.83-4.27-1.83-5.5-12.21-1.22-15.27l14-1.83c22.6-3.05,23.21-9.16,23.21-53.13V353.85c0-16.49,0-17.71-12.21-17.71H535.13c-3.66-2.44-4.27-7.94-1.83-11.6l26.26-12.82c4.89-2.44,9.16-6.11,9.16-12.21,0-35.42,4.27-73.28,18.93-107.48,15.27-34.81,49.47-77.56,109.92-77.56,32.37,0,59.85,14.66,59.85,36.64,0,12.21-11.6,22-23.21,22-6.72,0-10.38-2.44-14.66-7.33-11.6-13.43-28.7-26.87-48.86-26.87-18.93,0-34.2,11.6-43.36,33.59-11,28.09-13.43,72.67-13.43,103.21v17.71c0,16.49,0,17.1,10.38,17.1H693.9c6.72,6.11,2.44,23.21-4.27,25.65Z" transform="translate(-414 -114.46)"/></svg>